<svg width="32" height="32" viewBox="0 0 32 32" fill="none" xmlns="http://www.w3.org/2000/svg">
<g clip-path="url(#clip0_27_62)">
<path d="M15.9381 0C7.13687 0 0 7.13562 0 15.9381C0 22.9801 4.56675 28.9544 10.8995 31.0619C11.696 31.2094 11.9885 30.7161 11.9885 30.2951C11.9885 29.9151 11.9736 28.6595 11.9669 27.3277C7.53275 28.2919 6.59713 25.4473 6.59713 25.4473C5.87213 23.605 4.8275 23.1152 4.8275 23.1152C3.3815 22.126 4.9365 22.1462 4.9365 22.1462C6.537 22.2587 7.37975 23.7887 7.37975 23.7887C8.80125 26.2254 11.1082 25.5209 12.0177 25.1138C12.1607 24.0835 12.5739 23.3805 13.0296 22.9825C9.48962 22.5794 5.76813 21.2127 5.76813 15.1058C5.76813 13.3658 6.39075 11.9439 7.41038 10.8278C7.24487 10.4263 6.69938 8.80525 7.56475 6.60988C7.56475 6.60988 8.90313 6.1815 11.9489 8.24362C13.2201 7.89037 14.5836 7.71338 15.9381 7.70738C17.2926 7.71338 18.6571 7.89037 19.9309 8.24362C22.973 6.1815 24.3095 6.60988 24.3095 6.60988C25.177 8.80525 24.6313 10.4263 24.4657 10.8278C25.4876 11.9439 26.106 13.3656 26.106 15.1058C26.106 21.2272 22.3775 22.5752 18.8285 22.9697C19.4001 23.4644 19.9095 24.4344 19.9095 25.9212C19.9095 28.0537 19.891 29.7701 19.891 30.2951C19.891 30.7192 20.1779 31.2162 20.9859 31.0597C27.3151 28.9499 31.8761 22.9777 31.8761 15.9381C31.8761 7.13562 24.7402 0 15.9381 0Z" fill="#292929"/>
<path d="M5.96936 22.7044C5.93436 22.7835 5.80961 22.8072 5.69624 22.753C5.58061 22.701 5.51561 22.593 5.55311 22.5135C5.58749 22.432 5.71224 22.4092 5.82761 22.464C5.94349 22.5159 6.00949 22.6249 5.96936 22.7044ZM6.75336 23.4038C6.67736 23.4743 6.52874 23.4416 6.42786 23.3302C6.32361 23.2191 6.30411 23.0706 6.38124 22.999C6.45961 22.9286 6.60374 22.9615 6.70824 23.0727C6.81249 23.1851 6.83274 23.3327 6.75324 23.404M7.29124 24.2989C7.19349 24.3667 7.03374 24.3031 6.93511 24.1613C6.83749 24.0197 6.83749 23.8497 6.93724 23.7816C7.03624 23.7135 7.19349 23.7747 7.29349 23.9154C7.39099 24.0595 7.39099 24.2295 7.29111 24.299M8.20074 25.3355C8.11336 25.4317 7.92736 25.406 7.79111 25.2745C7.65186 25.146 7.61299 24.9636 7.70061 24.8672C7.78899 24.7707 7.97611 24.7979 8.11336 24.9282C8.25174 25.0565 8.29399 25.2402 8.20086 25.3355M9.37624 25.6855C9.33786 25.8102 9.15861 25.867 8.97811 25.814C8.79786 25.7594 8.67986 25.6131 8.71624 25.487C8.75374 25.3614 8.93374 25.3022 9.11561 25.359C9.29561 25.4134 9.41386 25.5585 9.37636 25.6855M10.7142 25.8339C10.7187 25.9654 10.5656 26.0744 10.3761 26.0767C10.1855 26.0809 10.0314 25.9745 10.0294 25.8452C10.0294 25.7125 10.179 25.6045 10.3695 25.6014C10.559 25.5976 10.7142 25.7032 10.7142 25.8339ZM12.0285 25.7835C12.0512 25.9117 11.9195 26.0435 11.7314 26.0785C11.5464 26.1122 11.3751 26.0331 11.3515 25.906C11.3285 25.7745 11.4627 25.6429 11.6474 25.6087C11.8359 25.576 12.0045 25.6531 12.0285 25.7835Z" fill="#292929"/>
</g>
<defs>
<clipPath id="clip0_27_62">
<rect width="32" height="31.1296" fill="white"/>
</clipPath>
</defs>
</svg>
